# xmcd
#
# Track frame offsets: 
#        150
#        11587
#        25662
#        38096
#        52811
#        65001
#        76673
#        91058
#        103075
#        114606
#        127923
#        140253
#        151099
#        167149
#        179744
#        192745
#        207099
#        219911
#        231059
#        242883
#        255042
#        267878
#        281811
#        295467
#        308862
#
# Disc length: 4287 seconds
#
# Revision: 0
# Processed by: cddbd v1.5.2PL0 Copyright (c) Steve Scherf et al.
# Submitted via: ExactAudioCopy v0.99pb3
#
DISCID=5710bd19
DTITLE=Ray Charles - Original Recordings - CD1
DYEAR=2007
DGENRE=R&B
TTITLE0=Hallelujah, I Love Her So
TTITLE1=Come Back, Baby
TTITLE2=It Should've Been Me
TTITLE3=Funny, But I Still Love You
TTITLE4=Mess Around
TTITLE5=Lonely Avenue
TTITLE6=Walkin' And Talkin'
TTITLE7=If I Give You My Love
TTITLE8=This Little Girl Of Mine
TTITLE9=Alone In This City
TTITLE10=Honey Honey
TTITLE11=Th' Ego Song (Aka All The Girls In Town)
TTITLE12=Let Me Hear You Call My Name
TTITLE13=Rockin' Chair Blues
TTITLE14=Don't Put All Your Dreams In One Basket
TTITLE15=Kissa Me Baby
TTITLE16=You'll Never Miss The Water (Until The Well's Gone Dry)
TTITLE17=A Sentimental Blues
TTITLE18=See See Rider
TTITLE19=Leave My Woman Alone
TTITLE20=Blues Before Sunrise
TTITLE21=This Love Of Mine
TTITLE22=Baby Let Me Hold Your Hand
TTITLE23=Don't You Know
TTITLE24=The Snow Is Falling
EXTD=
EXTT0=
EXTT1=
EXTT2=
EXTT3=
EXTT4=
EXTT5=
EXTT6=
EXTT7=
EXTT8=
EXTT9=
EXTT10=
EXTT11=
EXTT12=
EXTT13=
EXTT14=
EXTT15=
EXTT16=
EXTT17=
EXTT18=
EXTT19=
EXTT20=
EXTT21=
EXTT22=
EXTT23=
EXTT24=
PLAYORDER=
